<svg xmlns="http://www.w3.org/2000/svg" width="123" height="107" fill="none"><rect width="103.8" height="69" x="123" y="64" fill="#F1363E" rx="4" transform="rotate(156 123 64)"/><path fill="#fff" d="m79.9 45.9-4.4 1.9.8 1.7 4.3-1.9L80 46Zm-7.5-1L65 48.2l.7 1.5 4.9-2.1-1.4 2.7c-1 2.2-1.6 3.5-.8 5.1.8 1.9 2.7 2.5 4.7 1.6 1.8-.8 2.4-2 2.8-3.8l-1.7-.5c-.3 1.4-.7 2.2-1.7 2.6-1 .4-1.9.2-2.3-.8-.5-1-.2-1.8.6-3.7l2.2-4.5-.6-1.4Zm-13.6 5.8c-2.7 1.2-3.4 4.4-2.1 7.3 1.3 3 4.1 4.5 6.8 3.3 2.7-1.2 3.4-4.4 2-7.3-1.2-3-4-4.5-6.7-3.3Zm.7 1.6c1.6-.7 3.3.5 4.2 2.5 1 2.1.7 4.2-1 4.9-1.5.7-3.3-.5-4.2-2.5-.9-2-.6-4.2 1-4.9Zm-6.8 7.4c-1.4.7-1.8 2.3-1.2 3.7.6 1.5 2.1 2.2 3.5 1.6 1.5-.7 2-2.3 1.3-3.7-.6-1.4-2.1-2.2-3.6-1.6Zm-.9-5.7-1.4.7-3 13.5 1.5-.6 3-13.6Zm-7.6 3.2c-1.4.7-1.9 2.3-1.2 3.7.6 1.5 2.1 2.2 3.5 1.6 1.5-.6 2-2.3 1.3-3.7-.6-1.4-2.1-2.2-3.6-1.6Zm9 3.7c.7-.3 1.4.1 1.8 1 .4.8.3 1.6-.4 2-.7.2-1.4-.2-1.8-1-.4-.9-.3-1.7.4-2Zm-8.5-2.5c.7-.3 1.4.1 1.8 1 .4.8.3 1.7-.4 2-.7.3-1.5-.2-1.8-1-.4-.9-.3-1.7.4-2Z"/></svg>