<svg xmlns="http://www.w3.org/2000/svg" width="46" height="45" fill="none"><path fill="#EC1C24" fill-rule="evenodd" d="M22.8 45A22.2 22.2 0 1 0 23 .6 22.2 22.2 0 0 0 23 45Z" clip-rule="evenodd"/><path fill="#FAFAF9" fill-rule="evenodd" d="M25 6.2c.3.8.3 1.7 0 2.5 0 .3-.2.5-.4.5-.9.3-1.8.3-2.6 0a.7.7 0 0 1-.5-.5c-.2-.8-.2-1.7 0-2.5l.5-.5c.8-.2 1.7-.2 2.6 0 .2 0 .4.3.5.5ZM9.9 12.8c.9.2 1.6.7 2.2 1.3.1.2.2.5.1.7-.2.8-.6 1.6-1.3 2.1-.1.2-.4.3-.6.2-.8-.2-1.6-.7-2.2-1.3-.1-.2-.2-.4-.1-.7.2-.8.7-1.6 1.3-2.1.1-.2.4-.2.6-.2Zm6.8-5.3c.6.6 1 1.4 1.2 2.2 0 .2 0 .5-.2.7-.6.6-1.4 1-2.2 1.2-.2 0-.5 0-.6-.2-.7-.6-1-1.4-1.3-2.2 0-.2 0-.5.2-.6.6-.6 1.4-1 2.2-1.3.3 0 .5 0 .7.2Zm22 8.3c-.6.7-1.4 1.1-2.2 1.3-.2.1-.5 0-.6-.1-.6-.6-1.1-1.4-1.3-2.2l.1-.6c.6-.7 1.4-1.1 2.2-1.3l.6.1c.7.6 1.1 1.4 1.3 2.2.1.2 0 .4-.1.6ZM33 9.2c-.2.8-.6 1.6-1.2 2.2-.2.2-.5.2-.7.2-.8-.2-1.6-.6-2.2-1.2a.8.8 0 0 1-.2-.7c.2-.8.6-1.6 1.3-2.2l.6-.2c.8.2 1.6.7 2.2 1.3.2.2.2.4.2.6ZM24.2 27.2c1.5-2.2 2.5-4.6 2.8-7.4l.2-.2h.3c1 .8 2.1 1.4 3.3 1.8.2 0 .3.2.3.4-.6 3-2 6-3.8 8.5l-.2.1h-.3c-1-.8-1.8-1.7-2.6-2.6v-.6ZM23 34.3a21.9 21.9 0 0 1-7.5-12.5c0-.2 0-.3.2-.4 1.3-.4 2.4-1 3.4-1.8h.3l.1.2c.7 4.7 3.1 8.7 6.6 11.5l.1.2v.3c-.9.9-1.7 1.8-2.7 2.5 0 .2-.3.2-.5 0ZM39 23.4a3 3 0 0 0 1.4-3l-.1-.3H40c-2.2 1.5-4.8 2-7.3 1.7-.2 0-.3.1-.4.3-.4 1.9-1 3.7-1.8 5.4v.3l.2.2c2 .9 4.3 1.4 6.6 1.5.2 0 .3-.1.4-.3.8-1.8 1.2-3.7 1.3-5.8Z" clip-rule="evenodd"/><path fill="#FAFAF9" fill-rule="evenodd" d="M26.6 18.8c.8 0 8.2-1.4 5.6-3.5a21.6 21.6 0 0 0-7.6-4c-.9-.2-1.7-.2-2.6 0a22 22 0 0 0-7.6 4c-2.6 2.1 4.8 3.4 5.6 3.5.6 1.6 1.8 3.8 3.3 3.8 1.5 0 2.7-2.2 3.3-3.8ZM9 29.2c-.8-1.8-1.3-3.8-1.3-5.8a3 3 0 0 1-1.5-3c0-.2.1-.3.2-.3h.3c2.1 1.5 4.7 2 7.3 1.7.1 0 .3 0 .3.3.4 1.9 1 3.7 1.9 5.4v.3l-.2.2c-2 .9-4.3 1.4-6.7 1.4-.1 0-.3 0-.4-.2ZM30.8 38.6a17 17 0 0 1-7.5 1.7h-1.2l-.3-.2V40a10 10 0 0 1 9.8-7.6c2 0 3 1 3 2.2 0 1.6-1.3 2.9-3.8 4.1ZM15.9 38.6c1.3.6 2.7 1.1 4.3 1.4.2 0 .3 0 .4-.3.3-1.4 1-2.7 1.7-3.9.2-.1.2-.3 0-.5a10 10 0 0 0-7.2-3c-2 0-3 1-3 2.2 0 1.6 1.2 2.9 3.8 4.1Z" clip-rule="evenodd"/></svg>